<svg width="15" height="15" viewBox="0 0 15 15" fill="none" xmlns="http://www.w3.org/2000/svg">
<path opacity="0.1" fill-rule="evenodd" clip-rule="evenodd" d="M0.666504 7.66665C0.666504 3.73929 3.85026 0.555542 7.77761 0.555542C11.705 0.555542 14.8887 3.73929 14.8887 7.66665C14.8887 11.594 11.705 14.7778 7.77761 14.7778C3.85026 14.7778 0.666504 11.594 0.666504 7.66665Z" fill="white"/>
<path fill-rule="evenodd" clip-rule="evenodd" d="M11.5705 7.66148C11.5705 7.91797 11.5444 8.17409 11.4931 8.42376C11.4431 8.6675 11.3691 8.90679 11.272 9.13554C11.1772 9.36025 11.0596 9.57678 10.9222 9.77872C10.7868 9.97938 10.6309 10.1676 10.4596 10.3392C10.2879 10.5101 10.099 10.6656 9.89843 10.8016C9.69583 10.938 9.47898 11.0555 9.25414 11.1507C9.02506 11.2472 8.78522 11.3212 8.54169 11.3711C8.29169 11.4225 8.03463 11.4488 7.77777 11.4488C7.52072 11.4488 7.26368 11.4225 7.01403 11.3711C6.77014 11.3212 6.53031 11.2472 6.3014 11.1507C6.07658 11.0555 5.85953 10.938 5.65693 10.8016C5.45636 10.6656 5.26746 10.5101 5.09616 10.3392C4.92467 10.1676 4.76873 9.97938 4.63317 9.77872C4.4965 9.57678 4.3787 9.36023 4.28352 9.13554C4.18647 8.90679 4.11221 8.66748 4.06202 8.42376C4.01129 8.17409 3.98535 7.91797 3.98535 7.66148C3.98535 7.4048 4.01127 7.14812 4.06204 6.89901C4.11223 6.65527 4.18648 6.41561 4.28353 6.18723C4.37872 5.96236 4.49651 5.74563 4.63318 5.54368C4.76875 5.34285 4.92469 5.15496 5.09617 4.98316C5.26748 4.81227 5.45638 4.65713 5.65694 4.5214C5.85954 4.38436 6.0766 4.26694 6.30142 4.17151C6.53032 4.07478 6.77014 4.00063 7.01405 3.95108C7.26369 3.90004 7.52074 3.87415 7.77779 3.87415C8.03464 3.87415 8.29169 3.90004 8.54171 3.95108C8.78523 4.00065 9.02506 4.07479 9.25416 4.17151C9.47898 4.26693 9.69584 4.38436 9.89844 4.5214C10.099 4.65713 10.2879 4.81227 10.4596 4.98316C10.6309 5.15496 10.7868 5.34285 10.9222 5.54368C11.0596 5.74563 11.1772 5.96237 11.272 6.18723C11.3691 6.41561 11.4431 6.65527 11.4931 6.89901C11.5444 7.14812 11.5705 7.4048 11.5705 7.66148ZM6.39583 4.73609C5.49263 5.16199 4.81852 5.99305 4.60832 6.99462C4.69371 6.99537 6.04341 7.01238 7.59848 6.59979C7.03791 5.60525 6.43899 4.79362 6.39583 4.73609ZM7.86683 7.09783C6.19916 7.59637 4.59888 7.5605 4.54148 7.55829C4.54054 7.59305 4.53888 7.6267 4.53888 7.66148C4.53888 8.49234 4.85278 9.24981 5.36874 9.82255C5.36762 9.82087 6.25398 8.25065 8.00184 7.68626C8.04406 7.67221 8.08703 7.65962 8.12962 7.64742C8.04833 7.46362 7.95961 7.27942 7.86683 7.09783ZM9.91676 5.23411C9.34654 4.73202 8.59781 4.42746 7.77776 4.42746C7.5146 4.42746 7.25921 4.45927 7.01457 4.51808C7.06308 4.58318 7.67146 5.38909 8.22537 6.4047C9.44748 5.94719 9.90879 5.24594 9.91676 5.23411ZM8.3504 8.18334C8.34319 8.18573 8.33597 8.18779 8.32892 8.19037C6.41793 8.85561 5.79387 10.1963 5.78711 10.2109C6.33697 10.6379 7.02663 10.8955 7.77778 10.8955C8.22631 10.8955 8.65356 10.8043 9.04228 10.6392C8.99431 10.3566 8.80616 9.36614 8.3504 8.18334ZM9.58767 10.3437C10.3149 9.85362 10.8314 9.07545 10.9755 8.17408C10.9088 8.15263 10.0027 7.86617 8.95725 8.03354C9.38209 9.19934 9.5547 10.1488 9.58767 10.3437ZM8.47467 6.88662C8.54984 7.04086 8.62264 7.19784 8.68986 7.3556C8.71376 7.4122 8.73709 7.46768 8.75987 7.52315C9.87251 7.38333 10.9687 7.61856 11.0155 7.62817C11.0081 6.86147 10.7335 6.15781 10.279 5.60693C10.2729 5.6156 9.75344 6.36512 8.47467 6.88662Z" fill="white"/>
</svg>
