<svg width="15" height="15" viewBox="0 0 15 15" fill="none" xmlns="http://www.w3.org/2000/svg">
<path opacity="0.1" fill-rule="evenodd" clip-rule="evenodd" d="M0.333496 7.66665C0.333496 3.73929 3.51725 0.555542 7.44461 0.555542C11.372 0.555542 14.5557 3.73929 14.5557 7.66665C14.5557 11.594 11.372 14.7778 7.44461 14.7778C3.51725 14.7778 0.333496 11.594 0.333496 7.66665Z" fill="white"/>
<path fill-rule="evenodd" clip-rule="evenodd" d="M7.4448 3.87415C6.41479 3.87415 6.28552 3.87865 5.88098 3.89706C5.47722 3.91555 5.20162 3.97947 4.96047 4.07326C4.71103 4.17013 4.49943 4.29971 4.28862 4.5106C4.07766 4.7214 3.94808 4.933 3.85089 5.18237C3.75686 5.42359 3.69286 5.69927 3.67469 6.10287C3.6566 6.50742 3.65186 6.63676 3.65186 7.66678C3.65186 8.69679 3.65644 8.82566 3.67477 9.23021C3.69334 9.63397 3.75726 9.90957 3.85097 10.1507C3.94792 10.4002 4.0775 10.6118 4.28839 10.8226C4.49911 11.0335 4.71071 11.1634 4.96 11.2603C5.2013 11.3541 5.47698 11.418 5.88066 11.4365C6.28521 11.4549 6.41439 11.4594 7.44433 11.4594C8.47442 11.4594 8.6033 11.4549 9.00784 11.4365C9.4116 11.418 9.68751 11.3541 9.92882 11.2603C10.1782 11.1634 10.3895 11.0335 10.6002 10.8226C10.8112 10.6118 10.9407 10.4002 11.0379 10.1508C11.1312 9.90957 11.1952 9.63389 11.2141 9.23029C11.2323 8.82574 11.237 8.69679 11.237 7.66678C11.237 6.63676 11.2323 6.5075 11.2141 6.10295C11.1952 5.69919 11.1312 5.42359 11.0379 5.18245C10.9407 4.933 10.8112 4.7214 10.6002 4.5106C10.3892 4.29963 10.1783 4.17005 9.92858 4.07326C9.6868 3.97947 9.41105 3.91555 9.00729 3.89706C8.60274 3.87865 8.47395 3.87415 7.44362 3.87415H7.4448ZM7.10456 4.5576C7.20554 4.55744 7.31821 4.5576 7.44479 4.5576C8.45742 4.5576 8.57744 4.56123 8.97733 4.57941C9.34711 4.59632 9.5478 4.6581 9.68149 4.71002C9.85848 4.77876 9.98467 4.86093 10.1173 4.99367C10.2501 5.12641 10.3322 5.25284 10.4011 5.42983C10.4531 5.56336 10.5149 5.76405 10.5318 6.13383C10.5499 6.53364 10.5539 6.65374 10.5539 7.6659C10.5539 8.67806 10.5499 8.79816 10.5318 9.19796C10.5148 9.56774 10.4531 9.76844 10.4011 9.90197C10.3324 10.079 10.2501 10.205 10.1173 10.3376C9.98459 10.4704 9.85856 10.5526 9.68149 10.6213C9.54796 10.6735 9.34711 10.7351 8.97733 10.752C8.57752 10.7702 8.45742 10.7741 7.44479 10.7741C6.43208 10.7741 6.31205 10.7702 5.91225 10.752C5.54247 10.7349 5.34177 10.6731 5.208 10.6212C5.03101 10.5525 4.90459 10.4703 4.77185 10.3376C4.63911 10.2048 4.55694 10.0787 4.48804 9.90165C4.43612 9.76812 4.37426 9.56743 4.35743 9.19765C4.33925 8.79784 4.33562 8.67774 4.33562 7.66495C4.33562 6.65216 4.33925 6.53269 4.35743 6.13288C4.37434 5.7631 4.43612 5.56241 4.48804 5.42872C4.55678 5.25173 4.63911 5.12531 4.77185 4.99257C4.90459 4.85982 5.03101 4.77765 5.208 4.70875C5.34169 4.6566 5.54247 4.59497 5.91225 4.57798C6.26212 4.56218 6.3977 4.55744 7.10456 4.55665V4.5576ZM9.46927 5.18734C9.218 5.18734 9.01415 5.39095 9.01415 5.64229C9.01415 5.89355 9.218 6.09741 9.46927 6.09741C9.72053 6.09741 9.92438 5.89355 9.92438 5.64229C9.92438 5.39103 9.72053 5.18734 9.46927 5.18734ZM7.44481 5.71909C6.3692 5.71909 5.49714 6.59116 5.49714 7.66677C5.49714 8.74237 6.3692 9.61405 7.44481 9.61405C8.52042 9.61405 9.39217 8.74237 9.39217 7.66677C9.39217 6.59116 8.52042 5.71909 7.44481 5.71909ZM7.4448 6.40256C8.14296 6.40256 8.70901 6.96853 8.70901 7.66677C8.70901 8.36493 8.14296 8.93098 7.4448 8.93098C6.74656 8.93098 6.18058 8.36493 6.18058 7.66677C6.18058 6.96853 6.74656 6.40256 7.4448 6.40256Z" fill="white"/>
</svg>
