<svg width="494" height="44" viewBox="0 0 494 44" fill="none" xmlns="http://www.w3.org/2000/svg">
<g clip-path="url(#clip0_120_364)">
<path d="M35.8825 16.8046C35.8825 17.5734 35.2656 18.1927 34.4999 18.1927C33.7342 18.1927 33.1174 17.5734 33.1174 16.8046C33.1174 16.0358 33.7129 15.4166 34.4999 15.4166C35.2869 15.4379 35.8825 16.0572 35.8825 16.8046ZM30.1821 19.6021C30.1821 19.7302 30.1821 19.9437 30.1821 19.9437C30.1821 19.9437 29.5228 19.0896 28.1189 19.0896C25.8005 19.0896 23.9926 20.862 23.9926 23.3178C23.9926 25.7522 25.7792 27.546 28.1189 27.546C29.544 27.546 30.1821 26.6705 30.1821 26.6705V27.0335C30.1821 27.2043 30.3097 27.3325 30.4799 27.3325H32.2028V19.3031C32.2028 19.3031 30.6288 19.3031 30.4799 19.3031C30.3097 19.3031 30.1821 19.4526 30.1821 19.6021ZM30.1821 24.7486C29.8631 25.2184 29.225 25.6241 28.4593 25.6241C27.098 25.6241 26.0558 24.7699 26.0558 23.3178C26.0558 21.8657 27.098 21.0115 28.4593 21.0115C29.2037 21.0115 29.8843 21.4386 30.1821 21.887V24.7486ZM33.479 19.3031H35.5209V27.3325H33.479V19.3031ZM63.9801 19.0896C62.5763 19.0896 61.9169 19.9437 61.9169 19.9437V15.4379H59.875V27.3325C59.875 27.3325 61.449 27.3325 61.5978 27.3325C61.768 27.3325 61.8956 27.183 61.8956 27.0335V26.6705C61.8956 26.6705 62.555 27.546 63.9588 27.546C66.2772 27.546 68.0852 25.7522 68.0852 23.3178C68.0852 20.8834 66.2772 19.0896 63.9801 19.0896ZM63.6398 25.6027C62.8528 25.6027 62.2359 25.197 61.9169 24.7272V21.8657C62.2359 21.4386 62.9166 20.9901 63.6398 20.9901C65.001 20.9901 66.0433 21.8443 66.0433 23.2964C66.0433 24.7486 65.001 25.6027 63.6398 25.6027ZM58.8115 22.5704V27.3538H56.7696V22.8053C56.7696 21.4813 56.3442 20.9474 55.1956 20.9474C54.5788 20.9474 53.9407 21.2677 53.5365 21.7375V27.3325H51.4946V19.3031H53.1111C53.2813 19.3031 53.4089 19.4526 53.4089 19.6021V19.9437C54.0045 19.3245 54.7915 19.0896 55.5784 19.0896C56.4718 19.0896 57.2162 19.3458 57.8118 19.8583C58.535 20.4563 58.8115 21.225 58.8115 22.5704ZM46.5387 19.0896C45.1349 19.0896 44.4755 19.9437 44.4755 19.9437V15.4379H42.4336V27.3325C42.4336 27.3325 44.0076 27.3325 44.1565 27.3325C44.3266 27.3325 44.4543 27.183 44.4543 27.0335V26.6705C44.4543 26.6705 45.1136 27.546 46.5174 27.546C48.8359 27.546 50.6438 25.7522 50.6438 23.3178C50.6651 20.8834 48.8571 19.0896 46.5387 19.0896ZM46.1984 25.6027C45.4114 25.6027 44.7946 25.197 44.4755 24.7272V21.8657C44.7946 21.4386 45.4752 20.9901 46.1984 20.9901C47.5597 20.9901 48.6019 21.8443 48.6019 23.2964C48.6019 24.7486 47.5597 25.6027 46.1984 25.6027ZM40.6682 19.0896C41.285 19.0896 41.6041 19.1963 41.6041 19.1963V21.0969C41.6041 21.0969 39.9025 20.5203 38.839 21.7375V27.3538H36.7971V19.3031C36.7971 19.3031 38.3711 19.3031 38.5199 19.3031C38.6901 19.3031 38.8177 19.4526 38.8177 19.6021V19.9437C39.2006 19.4953 40.0301 19.0896 40.6682 19.0896ZM19.4621 26.6064C19.3557 26.3502 19.2494 26.0725 19.143 25.8376C18.9729 25.4533 18.8027 25.0902 18.6538 24.7486L18.6325 24.7272C17.1649 21.524 15.5909 18.2781 13.9319 15.0749L13.8681 14.9467C13.6979 14.6264 13.5278 14.2848 13.3576 13.9431C13.1449 13.5587 12.9322 13.153 12.5919 12.7686C11.9112 11.9144 10.9328 11.4446 9.89059 11.4446C8.82709 11.4446 7.86995 11.9144 7.16804 12.7259C6.84899 13.1102 6.61502 13.516 6.40232 13.9004C6.23216 14.242 6.062 14.5837 5.89184 14.904L5.82803 15.0322C4.19024 18.2354 2.595 21.4813 1.12737 24.6845L1.1061 24.7272C0.957211 25.0689 0.787052 25.4319 0.616892 25.8163C0.510542 26.0512 0.404193 26.3074 0.297843 26.5851C0.0213335 27.3752 -0.0637463 28.1226 0.0426034 28.8914C0.276573 30.493 1.34007 31.8383 2.8077 32.4362C3.36072 32.6711 3.935 32.7779 4.53056 32.7779C4.70072 32.7779 4.91342 32.7566 5.08358 32.7352C5.78549 32.6498 6.50867 32.4149 7.21058 32.0091C8.08265 31.518 8.91217 30.8133 9.84805 29.7883C10.7839 30.8133 11.6347 31.518 12.4855 32.0091C13.1874 32.4149 13.9106 32.6498 14.6125 32.7352C14.7827 32.7566 14.9954 32.7779 15.1655 32.7779C15.7611 32.7779 16.3567 32.6711 16.8884 32.4362C18.3773 31.8383 19.4195 30.4716 19.6535 28.8914C19.8237 28.1439 19.7386 27.3965 19.4621 26.6064ZM9.86932 27.7169C8.72074 26.2647 7.9763 24.898 7.72106 23.7449C7.61471 23.2537 7.59344 22.8266 7.65725 22.4422C7.69979 22.1006 7.82741 21.8016 7.99756 21.5453C8.40169 20.9688 9.08233 20.6057 9.86932 20.6057C10.6563 20.6057 11.3582 20.9474 11.7411 21.5453C11.9112 21.8016 12.0389 22.1006 12.0814 22.4422C12.1452 22.8266 12.1239 23.2751 12.0176 23.7449C11.7623 24.8767 11.0179 26.2434 9.86932 27.7169ZM18.356 28.7205C18.2071 29.831 17.4627 30.7919 16.4205 31.219C15.91 31.4326 15.357 31.4966 14.8039 31.4326C14.2722 31.3685 13.7405 31.1977 13.1874 30.8773C12.4217 30.4503 11.656 29.7883 10.7627 28.8059C12.1665 27.0762 13.0173 25.496 13.3363 24.0866C13.4852 23.4246 13.5065 22.8266 13.4427 22.2714C13.3576 21.7375 13.1662 21.2464 12.8684 20.8193C12.209 19.8583 11.103 19.3031 9.86932 19.3031C8.63566 19.3031 7.52963 19.8797 6.87026 20.8193C6.57248 21.2464 6.38105 21.7375 6.29597 22.2714C6.21089 22.8266 6.23216 23.4459 6.40232 24.0866C6.72137 25.496 7.59344 27.0976 8.97598 28.8273C8.10392 29.8096 7.31693 30.4716 6.55121 30.8987C5.99819 31.219 5.46644 31.3899 4.93469 31.4539C4.3604 31.518 3.80738 31.4326 3.31818 31.2404C2.27595 30.8133 1.5315 29.8523 1.38261 28.7419C1.3188 28.208 1.36134 27.6741 1.57404 27.0762C1.63785 26.8627 1.7442 26.6491 1.85055 26.3929C1.99944 26.0512 2.1696 25.6882 2.33976 25.3251L2.36103 25.2824C3.82865 22.1006 5.40263 18.8547 7.04042 15.6942L7.10423 15.566C7.27439 15.2457 7.44455 14.904 7.61471 14.5837C7.78487 14.242 7.97629 13.9217 8.21026 13.6441C8.65693 13.1316 9.25249 12.854 9.91186 12.854C10.5712 12.854 11.1668 13.1316 11.6135 13.6441C11.8474 13.9217 12.0389 14.242 12.209 14.5837C12.3792 14.904 12.5493 15.2457 12.7195 15.566L12.7833 15.6942C14.3998 18.876 15.9738 22.1219 17.4414 25.3038V25.3251C17.6116 25.6668 17.7605 26.0512 17.9306 26.3929C18.037 26.6491 18.1433 26.8627 18.2071 27.0762C18.3773 27.6314 18.4411 28.1653 18.356 28.7205Z" fill="#999999"/>
</g>
<g clip-path="url(#clip1_120_364)">
<path d="M162.786 24.4823L164.59 25.6847C164.004 26.5469 162.604 28.0262 160.183 28.0262C157.177 28.0262 154.939 25.7005 154.939 22.742C154.939 19.5936 157.201 17.4578 159.93 17.4578C162.675 17.4578 164.02 19.6411 164.455 20.8197L164.692 21.4209L157.62 24.3478C158.158 25.4078 158.997 25.9457 160.183 25.9457C161.37 25.9457 162.193 25.3603 162.786 24.4823ZM157.241 22.5759L161.963 20.614C161.702 19.9575 160.927 19.4908 160.001 19.4908C158.823 19.4908 157.185 20.5349 157.241 22.5759Z" fill="#999999"/>
<path d="M151.529 12.0707H153.808V27.5436H151.529V12.0707Z" fill="#999999"/>
<path d="M147.938 17.8691H150.137V27.2667C150.137 31.1666 147.835 32.7724 145.114 32.7724C142.551 32.7724 141.008 31.048 140.431 29.6478L142.448 28.8093C142.812 29.6715 143.69 30.692 145.114 30.692C146.862 30.692 147.938 29.6083 147.938 27.5832V26.8238H147.859C147.337 27.4566 146.34 28.0262 145.074 28.0262C142.432 28.0262 140.012 25.7242 140.012 22.7578C140.012 19.7755 142.432 17.4498 145.074 17.4498C146.332 17.4498 147.337 18.0115 147.859 18.6285H147.938V17.8691ZM148.096 22.7578C148.096 20.8909 146.854 19.5303 145.272 19.5303C143.674 19.5303 142.329 20.8909 142.329 22.7578C142.329 24.6009 143.674 25.9378 145.272 25.9378C146.854 25.9457 148.096 24.6009 148.096 22.7578Z" fill="#999999"/>
<path d="M127.505 22.7183C127.505 25.7638 125.132 28.0025 122.221 28.0025C119.31 28.0025 116.937 25.7559 116.937 22.7183C116.937 19.6569 119.31 17.4261 122.221 17.4261C125.132 17.4261 127.505 19.6569 127.505 22.7183ZM125.195 22.7183C125.195 20.8197 123.819 19.5145 122.221 19.5145C120.623 19.5145 119.247 20.8197 119.247 22.7183C119.247 24.601 120.623 25.922 122.221 25.922C123.819 25.922 125.195 24.601 125.195 22.7183Z" fill="#999999"/>
<path d="M139.047 22.742C139.047 25.7875 136.674 28.0262 133.762 28.0262C130.851 28.0262 128.478 25.7875 128.478 22.742C128.478 19.6806 130.851 17.4578 133.762 17.4578C136.674 17.4578 139.047 19.6727 139.047 22.742ZM136.729 22.742C136.729 20.8435 135.352 19.5382 133.755 19.5382C132.157 19.5382 130.78 20.8435 130.78 22.742C130.78 24.6247 132.157 25.9457 133.755 25.9457C135.36 25.9457 136.729 24.6168 136.729 22.742Z" fill="#999999"/>
<path d="M108.251 25.7084C104.937 25.7084 102.342 23.0346 102.342 19.7201C102.342 16.4057 104.937 13.7319 108.251 13.7319C110.039 13.7319 111.344 14.4359 112.309 15.3377L113.899 13.7477C112.554 12.4583 110.759 11.4774 108.251 11.4774C103.71 11.4774 99.8896 15.1795 99.8896 19.7201C99.8896 24.2608 103.71 27.9629 108.251 27.9629C110.703 27.9629 112.554 27.156 114.002 25.653C115.489 24.1658 115.948 22.0775 115.948 20.3846C115.948 19.8546 115.885 19.3088 115.813 18.9054H108.251V21.1045H113.638C113.48 22.4809 113.045 23.4223 112.404 24.063C111.629 24.8461 110.403 25.7084 108.251 25.7084Z" fill="#999999"/>
</g>
<g clip-path="url(#clip2_120_364)">
<path d="M223.313 28.1585L224.355 25.7396C225.48 26.5795 226.975 27.0162 228.454 27.0162C229.545 27.0162 230.234 26.5963 230.234 25.9579C230.217 24.1774 223.7 25.5716 223.649 21.1033C223.633 18.8356 225.648 17.0886 228.504 17.0886C230.201 17.0886 231.897 17.5086 233.107 18.4661L232.132 20.9354C231.024 20.2299 229.646 19.7259 228.336 19.7259C227.446 19.7259 226.858 20.1459 226.858 20.6834C226.875 22.4304 233.443 21.4729 233.51 25.7396C233.51 28.0577 231.544 29.6871 228.722 29.6871C226.656 29.6871 224.758 29.1999 223.313 28.1585ZM263.276 24.8661C262.755 25.7732 261.781 26.3947 260.655 26.3947C258.992 26.3947 257.648 25.0509 257.648 23.3879C257.648 21.7249 258.992 20.381 260.655 20.381C261.781 20.381 262.755 21.0026 263.276 21.9096L266.148 20.3138C265.073 18.3989 263.007 17.0886 260.655 17.0886C257.178 17.0886 254.356 19.9107 254.356 23.3879C254.356 26.865 257.178 29.6871 260.655 29.6871C263.024 29.6871 265.073 28.3936 266.148 26.4619L263.276 24.8661V24.8661ZM234.954 11.8645H238.549V29.4519H234.954V11.8645ZM267.559 11.8645V29.4519H271.154V24.1774L275.421 29.4519H280.023L274.597 23.1863L279.62 17.3406H275.219L271.154 22.1952V11.8645H267.559ZM249.233 24.8997C248.712 25.7564 247.637 26.3947 246.427 26.3947C244.764 26.3947 243.421 25.0509 243.421 23.3879C243.421 21.7249 244.764 20.381 246.427 20.381C247.637 20.381 248.712 21.053 249.233 21.9264V24.8997ZM249.233 17.3406V18.7684C248.645 17.7774 247.183 17.0886 245.655 17.0886C242.497 17.0886 240.011 19.8771 240.011 23.3711C240.011 26.865 242.497 29.6871 245.655 29.6871C247.183 29.6871 248.645 28.9984 249.233 28.0073V29.4351H252.827V17.3406H249.233Z" fill="#999999"/>
<path d="M201.09 24.8828C201.09 26.1091 200.099 27.1002 198.873 27.1002C197.646 27.1002 196.655 26.1091 196.655 24.8828C196.655 23.6566 197.646 22.6655 198.873 22.6655H201.09V24.8828ZM202.199 24.8828C202.199 23.6566 203.19 22.6655 204.416 22.6655C205.642 22.6655 206.633 23.6566 206.633 24.8828V30.4262C206.633 31.6524 205.642 32.6435 204.416 32.6435C203.19 32.6435 202.199 31.6524 202.199 30.4262V24.8828Z" fill="#999999"/>
<path d="M204.416 15.9801C203.19 15.9801 202.199 14.989 202.199 13.7627C202.199 12.5365 203.19 11.5454 204.416 11.5454C205.642 11.5454 206.633 12.5365 206.633 13.7627V15.9801H204.416ZM204.416 17.1055C205.642 17.1055 206.633 18.0966 206.633 19.3228C206.633 20.5491 205.642 21.5402 204.416 21.5402H198.856C197.63 21.5402 196.639 20.5491 196.639 19.3228C196.639 18.0966 197.63 17.1055 198.856 17.1055H204.416Z" fill="#999999"/>
<path d="M213.302 19.3228C213.302 18.0966 214.293 17.1055 215.519 17.1055C216.746 17.1055 217.737 18.0966 217.737 19.3228C217.737 20.5491 216.746 21.5402 215.519 21.5402H213.302V19.3228ZM212.193 19.3228C212.193 20.5491 211.202 21.5402 209.976 21.5402C208.75 21.5402 207.759 20.5491 207.759 19.3228V13.7627C207.759 12.5365 208.75 11.5454 209.976 11.5454C211.202 11.5454 212.193 12.5365 212.193 13.7627V19.3228V19.3228Z" fill="#999999"/>
<path d="M209.976 28.2088C211.202 28.2088 212.193 29.1999 212.193 30.4262C212.193 31.6524 211.202 32.6435 209.976 32.6435C208.75 32.6435 207.759 31.6524 207.759 30.4262V28.2088H209.976ZM209.976 27.1002C208.75 27.1002 207.759 26.1091 207.759 24.8828C207.759 23.6566 208.75 22.6655 209.976 22.6655H215.536C216.762 22.6655 217.754 23.6566 217.754 24.8828C217.754 26.1091 216.762 27.1002 215.536 27.1002H209.976Z" fill="#999999"/>
</g>
<g clip-path="url(#clip3_120_364)">
<path d="M322.729 31.4028C321.542 31.6113 320.335 31.6739 319.086 31.8404L315.277 20.6738V32.3196C314.091 32.4446 313.008 32.6113 311.885 32.7779V11.4446H315.048L319.378 23.5489V11.4446H322.729V31.4028ZM329.285 19.2571C330.576 19.2571 332.553 19.1946 333.739 19.1946V22.5278C332.261 22.5278 330.534 22.5278 329.285 22.5903V27.5488C331.242 27.4238 333.198 27.257 335.175 27.1945V30.4026L325.955 31.1319V11.4446H335.175V14.7779H329.285V19.2571V19.2571ZM347.56 14.778H344.104V30.1113C342.981 30.1113 341.857 30.1113 340.774 30.1529V14.778H337.319V11.4446H347.56L347.56 14.778V14.778ZM352.971 19.028H357.529V22.3612H352.971V29.9238H349.703V11.4446H359.007V14.7779H352.971V19.028V19.028ZM364.419 27.0071C366.313 27.0486 368.228 27.1947 370.08 27.2987V30.5904C367.104 30.4028 364.127 30.2155 361.089 30.1529V11.4446H364.419V27.0071ZM372.89 30.8196C373.952 30.8822 375.076 30.9447 376.158 31.0695V11.4446H372.89V30.8196V30.8196ZM390.749 11.4446L386.523 21.5904L390.749 32.7779C389.5 32.6113 388.251 32.3821 387.002 32.1737L384.608 26.0072L382.173 31.6739C380.966 31.4653 379.8 31.4028 378.593 31.2362L382.881 21.4653L379.01 11.4446H382.589L384.775 17.0488L387.106 11.4446H390.749V11.4446Z" fill="#999999"/>
</g>
<g clip-path="url(#clip4_120_364)">
<path fill-rule="evenodd" clip-rule="evenodd" d="M466.428 28.1278C462.309 31.1601 456.34 32.7779 451.2 32.7779C443.993 32.7779 437.505 30.1154 432.596 25.6873C432.211 25.3391 432.556 24.8645 433.019 25.1357C438.316 28.2141 444.866 30.0661 451.632 30.0661C456.195 30.0661 461.214 29.1232 465.83 27.1664C466.527 26.8706 467.11 27.6225 466.428 28.1278" fill="#999999"/>
<path fill-rule="evenodd" clip-rule="evenodd" d="M468.14 26.1711C467.616 25.4994 464.66 25.8537 463.333 26.0109C462.929 26.0602 462.868 25.7089 463.232 25.4562C465.586 23.8015 469.448 24.2791 469.899 24.8338C470.349 25.3915 469.781 29.2588 467.569 31.1046C467.23 31.3881 466.906 31.2371 467.057 30.8612C467.554 29.6224 468.668 26.846 468.14 26.1711" fill="#999999"/>
<path fill-rule="evenodd" clip-rule="evenodd" d="M463.426 13.7742V12.1657C463.426 11.9222 463.611 11.7589 463.833 11.7589H471.043C471.275 11.7589 471.46 11.9253 471.46 12.1657V13.5431C471.457 13.7742 471.262 14.0762 470.917 14.5538L467.181 19.8818C468.569 19.8479 470.035 20.0543 471.293 20.7631C471.577 20.9233 471.654 21.1575 471.676 21.3886V23.105C471.676 23.3392 471.417 23.6135 471.145 23.4717C468.927 22.31 465.981 22.1837 463.528 23.4841C463.278 23.6197 463.016 23.3485 463.016 23.1143V21.4842C463.016 21.2222 463.019 20.7754 463.281 20.3779L467.61 14.1779H463.843C463.611 14.1779 463.426 14.0146 463.426 13.7742" fill="#999999"/>
<path fill-rule="evenodd" clip-rule="evenodd" d="M437.125 23.8106H434.932C434.722 23.7952 434.555 23.6381 434.54 23.4378V12.1933C434.54 11.9684 434.728 11.7896 434.963 11.7896H437.008C437.221 11.7989 437.391 11.9622 437.406 12.1656V13.6355H437.446C437.98 12.2149 438.983 11.5524 440.334 11.5524C441.707 11.5524 442.564 12.2149 443.182 13.6355C443.712 12.2149 444.918 11.5524 446.211 11.5524C447.13 11.5524 448.136 11.9314 448.75 12.7819C449.444 13.7279 449.302 15.1023 449.302 16.3071L449.299 23.4039C449.299 23.6288 449.111 23.8106 448.877 23.8106H446.686C446.467 23.7952 446.291 23.6196 446.291 23.4039V17.4442C446.291 16.9697 446.335 15.7864 446.23 15.3365C446.066 14.5815 445.576 14.3689 444.94 14.3689C444.409 14.3689 443.854 14.7232 443.629 15.2902C443.404 15.8572 443.425 16.8063 443.425 17.4442V23.4039C443.425 23.6288 443.237 23.8106 443.003 23.8106H440.812C440.59 23.7952 440.417 23.6196 440.417 23.4039L440.414 17.4442C440.414 16.19 440.621 14.3442 439.063 14.3442C437.486 14.3442 437.548 16.1438 437.548 17.4442V23.4039C437.548 23.6288 437.36 23.8106 437.125 23.8106" fill="#999999"/>
<path fill-rule="evenodd" clip-rule="evenodd" d="M477.667 11.5524C480.922 11.5524 482.684 14.3442 482.684 17.8941C482.684 21.3238 480.737 24.0448 477.667 24.0448C474.471 24.0448 472.731 21.253 472.731 17.7739C472.731 14.2733 474.493 11.5524 477.667 11.5524V11.5524ZM477.686 13.8481C476.069 13.8481 475.967 16.0483 475.967 17.4196C475.967 18.7939 475.946 21.7275 477.667 21.7275C479.367 21.7275 479.447 19.3609 479.447 17.9188C479.447 16.9697 479.407 15.8357 479.12 14.9359C478.873 14.1532 478.383 13.8481 477.686 13.8481" fill="#999999"/>
<path fill-rule="evenodd" clip-rule="evenodd" d="M486.904 23.8106H484.72C484.501 23.7952 484.325 23.6196 484.325 23.4039L484.322 12.1563C484.34 11.9499 484.522 11.7896 484.744 11.7896H486.778C486.969 11.7989 487.126 11.9283 487.169 12.104V13.8234H487.209C487.823 12.2858 488.684 11.5524 490.199 11.5524C491.183 11.5524 492.143 11.9067 492.76 12.8774C493.333 13.7772 493.333 15.2902 493.333 16.378V23.4563C493.309 23.6535 493.127 23.8106 492.911 23.8106H490.711C490.511 23.7952 490.344 23.6473 490.322 23.4563V17.3487C490.322 16.1192 490.464 14.3196 488.949 14.3196C488.416 14.3196 487.925 14.677 487.681 15.2194C487.373 15.9065 487.333 16.5906 487.333 17.3487V23.4039C487.33 23.6288 487.139 23.8106 486.904 23.8106" fill="#999999"/>
<path fill-rule="evenodd" clip-rule="evenodd" d="M457.678 18.4396C457.678 19.2932 457.7 20.005 457.268 20.7631C456.92 21.3794 456.364 21.7584 455.75 21.7584C454.908 21.7584 454.414 21.1175 454.414 20.1714C454.414 18.304 456.09 17.9651 457.678 17.9651V18.4396V18.4396ZM459.89 23.7799C459.745 23.9093 459.536 23.9185 459.372 23.8323C458.644 23.2283 458.511 22.9479 458.113 22.3716C456.91 23.5981 456.056 23.9648 454.498 23.9648C452.65 23.9648 451.215 22.8277 451.215 20.5505C451.215 18.7724 452.178 17.5614 453.554 16.9697C454.744 16.4459 456.407 16.3534 457.678 16.2086V15.9251C457.678 15.4043 457.719 14.788 457.41 14.3381C457.145 13.9344 456.633 13.768 456.179 13.768C455.343 13.768 454.599 14.1964 454.417 15.0838C454.38 15.2811 454.235 15.4752 454.035 15.4844L451.909 15.2564C451.73 15.2164 451.53 15.0715 451.582 14.7973C452.07 12.2211 454.402 11.4446 456.488 11.4446C457.555 11.4446 458.95 11.7281 459.792 12.5354C460.859 13.5308 460.757 14.8589 460.757 16.3041V19.7184C460.757 20.7446 461.183 21.1945 461.584 21.7492C461.723 21.9464 461.754 22.1837 461.575 22.3316C461.128 22.7044 460.332 23.3978 459.894 23.786L459.89 23.7799" fill="#999999"/>
<path fill-rule="evenodd" clip-rule="evenodd" d="M428.922 18.4396C428.922 19.2932 428.943 20.005 428.512 20.7631C428.163 21.3794 427.611 21.7584 426.994 21.7584C426.151 21.7584 425.661 21.1175 425.661 20.1714C425.661 18.304 427.336 17.9651 428.922 17.9651V18.4396V18.4396ZM431.134 23.7799C430.989 23.9093 430.779 23.9185 430.616 23.8323C429.888 23.2283 429.758 22.9479 429.357 22.3716C428.154 23.5981 427.302 23.9648 425.741 23.9648C423.896 23.9648 422.458 22.8277 422.458 20.5505C422.458 18.7724 423.424 17.5614 424.797 16.9697C425.988 16.4459 427.651 16.3534 428.922 16.2086V15.9251C428.922 15.4043 428.962 14.788 428.657 14.3381C428.388 13.9344 427.876 13.768 427.426 13.768C426.589 13.768 425.843 14.1964 425.661 15.0838C425.624 15.2811 425.479 15.4752 425.281 15.4844L423.153 15.2564C422.974 15.2164 422.776 15.0715 422.826 14.7973C423.316 12.2211 425.645 11.4446 427.731 11.4446C428.798 11.4446 430.193 11.7281 431.035 12.5354C432.103 13.5308 432.001 14.8589 432.001 16.3041V19.7184C432.001 20.7446 432.427 21.1945 432.828 21.7492C432.97 21.9464 433 22.1837 432.821 22.3316C432.374 22.7044 431.578 23.3978 431.14 23.786L431.134 23.7799" fill="#999999"/>
</g>
<defs>
<clipPath id="clip0_120_364">
<rect width="68.0851" height="21.3333" fill="white" transform="translate(0 11.4446)"/>
</clipPath>
<clipPath id="clip1_120_364">
<rect width="65.0159" height="21.3333" fill="white" transform="translate(99.7952 11.4446)"/>
</clipPath>
<clipPath id="clip2_120_364">
<rect width="83.6535" height="21.3333" fill="white" transform="translate(196.521 11.4446)"/>
</clipPath>
<clipPath id="clip3_120_364">
<rect width="78.864" height="21.3333" fill="white" transform="translate(311.885 11.4446)"/>
</clipPath>
<clipPath id="clip4_120_364">
<rect width="70.8749" height="21.3333" fill="white" transform="translate(422.458 11.4446)"/>
</clipPath>
</defs>
</svg>
