<svg width="15" height="15" viewBox="0 0 15 15" fill="none" xmlns="http://www.w3.org/2000/svg">
<path opacity="0.1" fill-rule="evenodd" clip-rule="evenodd" d="M0 7.66665C0 3.73929 3.18375 0.555542 7.11111 0.555542C11.0385 0.555542 14.2222 3.73929 14.2222 7.66665C14.2222 11.594 11.0385 14.7778 7.11111 14.7778C3.18375 14.7778 0 11.594 0 7.66665Z" fill="white"/>
<path fill-rule="evenodd" clip-rule="evenodd" d="M6.89824 6.3356L6.91316 6.58166L6.66446 6.55153C5.75918 6.43603 4.9683 6.04434 4.2968 5.38651L3.96851 5.0601L3.88395 5.30114C3.70489 5.83846 3.81929 6.4059 4.19235 6.78755C4.39131 6.99846 4.34654 7.02859 4.00333 6.90304C3.88395 6.86287 3.7795 6.83274 3.76955 6.84781C3.73473 6.88296 3.85411 7.33993 3.94862 7.52071C4.07794 7.77179 4.34157 8.01785 4.63006 8.16348L4.87379 8.27897L4.5853 8.284C4.30675 8.284 4.2968 8.28902 4.32665 8.39447C4.42613 8.72088 4.81908 9.06737 5.2568 9.21802L5.56519 9.32348L5.29659 9.48417C4.89866 9.71516 4.4311 9.84573 3.96354 9.85577C3.7397 9.86079 3.55566 9.88088 3.55566 9.89594C3.55566 9.94616 4.1625 10.2274 4.51566 10.3378C5.57514 10.6643 6.83358 10.5236 7.77865 9.96625C8.45015 9.56954 9.12165 8.78114 9.43502 8.01785C9.60414 7.6111 9.77326 6.86789 9.77326 6.51136C9.77326 6.28036 9.78818 6.25023 10.0667 5.97404C10.2309 5.81335 10.3851 5.63759 10.4149 5.58737C10.4647 5.49196 10.4597 5.49196 10.206 5.57733C9.78321 5.72798 9.72352 5.70789 9.93243 5.48192C10.0866 5.32123 10.2707 5.02997 10.2707 4.9446C10.2707 4.92954 10.1961 4.95465 10.1115 4.99984C10.022 5.05006 9.823 5.12538 9.67378 5.17058L9.40518 5.25595L9.16145 5.09023C9.02715 4.99984 8.83813 4.89941 8.73865 4.86928C8.48497 4.79898 8.09699 4.80902 7.86819 4.88937C7.24643 5.11534 6.85348 5.69785 6.89824 6.3356Z" fill="white"/>
</svg>
