<svg width="123" height="25" viewBox="0 0 123 25" fill="none" xmlns="http://www.w3.org/2000/svg">
<path d="M1.54973 9.0909L3.89952 11.4407C3.90097 11.4421 3.90253 11.4435 3.90399 11.4449C3.90544 11.4464 3.90717 11.4483 3.90885 11.45C4.59455 12.1357 5.49855 12.5598 6.46414 12.649C7.42973 12.7382 8.39605 12.4868 9.19579 11.9384C9.99553 12.4868 10.9618 12.7382 11.9274 12.649C12.8931 12.5598 13.797 12.1357 14.4827 11.45L16.8325 9.10028C17.5646 8.36798 17.9968 7.38865 18.0444 6.35428C18.092 5.31988 17.7516 4.30498 17.0898 3.50854C16.428 2.71215 15.4927 2.19158 14.467 2.04895C13.4414 1.90633 12.3995 2.15187 11.5455 2.7375C10.8541 2.26333 10.0353 2.00947 9.19696 2.00919C8.35853 2.00897 7.53969 2.26238 6.84795 2.73616C5.995 2.1469 4.95251 1.89795 3.92532 2.03812C2.89813 2.17834 1.96052 2.69752 1.29659 3.49379C0.63272 4.29007 0.290622 5.30581 0.337419 6.34143C0.384271 7.3771 0.816668 8.35781 1.54973 9.0909ZM12.8215 3.91419C13.352 3.66082 13.9549 3.60319 14.5238 3.7514C15.0926 3.89956 15.5908 4.24411 15.9302 4.72409C16.2696 5.20406 16.4284 5.78852 16.3786 6.37427C16.3287 6.96001 16.0734 7.50928 15.6578 7.92499L13.3081 10.2748C12.9433 10.639 12.4748 10.8814 11.9668 10.9687C11.4588 11.056 10.9362 10.9839 10.4709 10.7622L12.133 9.10028C12.7704 8.46617 13.1831 7.64108 13.3081 6.75071C13.3356 6.55604 13.3495 6.35969 13.3496 6.16307C13.3513 5.38578 13.1333 4.62385 12.7208 3.965C12.7541 3.94725 12.7877 3.93038 12.8215 3.91435L12.8215 3.91419ZM7.43348 4.40058C7.90139 3.93574 8.53449 3.6754 9.19406 3.67646C9.85363 3.67758 10.4858 3.9401 10.9522 4.40645C11.4186 4.87285 11.6811 5.50506 11.6822 6.16463C11.6833 6.8242 11.4229 7.45728 10.9581 7.92522L9.19579 9.68753L7.43348 7.92522C6.9669 7.45746 6.70488 6.82375 6.70488 6.16307C6.70488 5.50244 6.9669 4.86872 7.43348 4.40097L7.43348 4.40058ZM2.72462 4.39126C3.09107 4.02576 3.56206 3.78323 4.07241 3.69718C4.58277 3.61112 5.10725 3.68584 5.57327 3.911C5.60677 3.92714 5.63994 3.94406 5.67272 3.96176C5.25898 4.62133 5.04029 5.38449 5.04197 6.16307C5.04214 6.35969 5.05599 6.55604 5.08352 6.75071C5.2085 7.64108 5.62118 8.46617 6.25858 9.10028L7.91055 10.7522L7.91987 10.7615C7.45475 10.983 6.93245 11.0552 6.42466 10.9681C5.91687 10.8811 5.44851 10.639 5.08374 10.2752C5.08207 10.2735 5.0805 10.2717 5.07888 10.27C5.07726 10.2684 5.07587 10.2672 5.07441 10.2658L2.73563 7.927L2.72446 7.91583C2.2571 7.44842 1.99452 6.81448 1.99452 6.15352C1.99452 5.49255 2.2571 4.85861 2.72446 4.3912L2.72462 4.39126Z" fill="white"/>
<path d="M26.585 23.8889H30.042L33.1592 12.5569H33.2295L36.335 23.8889H39.792L44.2803 6.97876H40.6123L37.9287 19.0959H37.8584L34.7412 6.97876H31.6357L28.5186 19.0959H28.4482L25.7764 6.97876H22.1084L26.585 23.8889ZM48.042 24.0881C49.6943 24.0881 51.0303 23.303 51.7451 22.0139H51.8154V23.8889H55.2373V15.2756C55.2373 12.7444 53.1396 11.0686 49.8936 11.0686C46.5771 11.0686 44.585 12.7327 44.3975 15.053L44.3857 15.1936H47.5146L47.5381 15.0881C47.7021 14.2795 48.4756 13.6819 49.7529 13.6819C51.0889 13.6819 51.8154 14.3733 51.8154 15.4866V16.26L48.71 16.4475C45.5928 16.6467 43.8232 17.9827 43.8232 20.2678V20.2913C43.8232 22.5061 45.5225 24.0881 48.042 24.0881ZM47.21 20.1155V20.092C47.21 19.2014 47.9014 18.6389 49.2256 18.5569L51.8154 18.3928V19.2952C51.8154 20.6077 50.6904 21.592 49.1553 21.592C47.9717 21.592 47.21 21.0413 47.21 20.1155ZM57.5693 23.8889H60.9912V19.7288L61.8701 18.7561L65.4678 23.8889H69.417L64.4365 16.7288L69.1826 11.3264H65.3037L61.0615 16.3538H60.9912V6.97876H57.5693V23.8889ZM74.0342 24.0881C75.6865 24.0881 77.0225 23.303 77.7373 22.0139H77.8076V23.8889H81.2295V15.2756C81.2295 12.7444 79.1318 11.0686 75.8857 11.0686C72.5693 11.0686 70.5771 12.7327 70.3896 15.053L70.3779 15.1936H73.5068L73.5303 15.0881C73.6943 14.2795 74.4678 13.6819 75.7451 13.6819C77.0811 13.6819 77.8076 14.3733 77.8076 15.4866V16.26L74.7021 16.4475C71.585 16.6467 69.8154 17.9827 69.8154 20.2678V20.2913C69.8154 22.5061 71.5146 24.0881 74.0342 24.0881ZM73.2021 20.1155V20.092C73.2021 19.2014 73.8936 18.6389 75.2178 18.5569L77.8076 18.3928V19.2952C77.8076 20.6077 76.6826 21.592 75.1475 21.592C73.9639 21.592 73.2021 21.0413 73.2021 20.1155ZM83.4443 23.8889H86.8662V16.6702C86.8662 15.0295 87.8389 13.9045 89.374 13.9045C90.9092 13.9045 91.6826 14.842 91.6826 16.4827V23.8889H95.1045V15.7795C95.1045 12.8381 93.5342 11.0686 90.7686 11.0686C88.8701 11.0686 87.5811 11.9475 86.9365 13.3889H86.8662V11.3264H83.4443V23.8889ZM101.925 24.1467C103.741 24.1467 105.124 23.2327 105.792 21.7444H105.862V23.8889H109.284V6.97876H105.862V13.5061H105.792C105.112 11.9827 103.706 11.0686 101.925 11.0686C98.7607 11.0686 96.8154 13.5061 96.8154 17.5959V17.6077C96.8154 21.6858 98.7607 24.1467 101.925 24.1467ZM103.073 21.3108C101.362 21.3108 100.296 19.8928 100.296 17.6077V17.5959C100.296 15.2991 101.374 13.9045 103.073 13.9045C104.726 13.9045 105.874 15.3342 105.874 17.5959V17.6077C105.874 19.8811 104.737 21.3108 103.073 21.3108ZM115.308 24.0881C116.96 24.0881 118.296 23.303 119.011 22.0139H119.081V23.8889H122.503V15.2756C122.503 12.7444 120.405 11.0686 117.159 11.0686C113.843 11.0686 111.851 12.7327 111.663 15.053L111.651 15.1936H114.78L114.804 15.0881C114.968 14.2795 115.741 13.6819 117.019 13.6819C118.354 13.6819 119.081 14.3733 119.081 15.4866V16.26L115.976 16.4475C112.858 16.6467 111.089 17.9827 111.089 20.2678V20.2913C111.089 22.5061 112.788 24.0881 115.308 24.0881ZM114.476 20.1155V20.092C114.476 19.2014 115.167 18.6389 116.491 18.5569L119.081 18.3928V19.2952C119.081 20.6077 117.956 21.592 116.421 21.592C115.237 21.592 114.476 21.0413 114.476 20.1155Z" fill="#F7F8F8"/>
</svg>
