<svg width="15" height="15" viewBox="0 0 15 15" fill="none" xmlns="http://www.w3.org/2000/svg">
<path opacity="0.1" fill-rule="evenodd" clip-rule="evenodd" d="M0.333496 7.66665C0.333496 3.73929 3.51725 0.555542 7.44461 0.555542C11.372 0.555542 14.5557 3.73929 14.5557 7.66665C14.5557 11.594 11.372 14.7778 7.44461 14.7778C3.51725 14.7778 0.333496 11.594 0.333496 7.66665Z" fill="white"/>
<path fill-rule="evenodd" clip-rule="evenodd" d="M10.4079 5.22209C10.7343 5.31165 10.9913 5.57554 11.0785 5.91065C11.237 6.518 11.237 7.78525 11.237 7.78525C11.237 7.78525 11.237 9.05246 11.0785 9.65985C10.9913 9.99497 10.7343 10.2589 10.4079 10.3485C9.81641 10.5112 7.44445 10.5112 7.44445 10.5112C7.44445 10.5112 5.07248 10.5112 4.48097 10.3485C4.15459 10.2589 3.89756 9.99497 3.81033 9.65985C3.65186 9.05246 3.65186 7.78525 3.65186 7.78525C3.65186 7.78525 3.65186 6.518 3.81033 5.91065C3.89756 5.57554 4.15459 5.31165 4.48097 5.22209C5.07248 5.05933 7.44445 5.05933 7.44445 5.05933C7.44445 5.05933 9.81641 5.05933 10.4079 5.22209ZM6.73334 6.71856V9.08893L8.62964 7.90379L6.73334 6.71856Z" fill="white"/>
</svg>
